<?xml version="1.0" standalone="no"?>
<!DOCTYPE svg PUBLIC "-//W3C//DTD SVG 20010904//EN"
 "http://www.w3.org/TR/2001/REC-SVG-20010904/DTD/svg10.dtd">
<svg version="1.0" xmlns="http://www.w3.org/2000/svg"
 width="1529.000000pt" height="1529.000000pt" viewBox="0 0 1529.000000 1529.000000"
 preserveAspectRatio="xMidYMid meet">
<metadata>
Created by potrace 1.11, written by Peter Selinger 2001-2013
</metadata>
<g transform="translate(0.000000,1529.000000) scale(0.100000,-0.100000)"
fill="#000000" stroke="none">
<path d="M9660 8903 c-1 -540 -2 -606 -15 -588 -91 119 -201 212 -323 271
-111 54 -128 60 -250 81 -51 8 -215 9 -287 0 -413 -49 -722 -371 -826 -857
-28 -135 -34 -201 -34 -410 0 -208 5 -264 34 -400 34 -155 54 -211 126 -355
180 -361 492 -556 890 -558 66 0 139 3 162 7 210 35 368 129 488 289 l45 59 1
-99 c0 -54 0 -119 -1 -145 l-1 -48 315 0 316 0 0 1680 0 1680 -320 0 -320 0 0
-607z m-397 -798 c278 -57 419 -319 419 -775 0 -249 -72 -444 -213 -579 -136
-129 -334 -168 -514 -100 -172 65 -310 258 -355 499 -25 132 -18 402 15 535
45 183 142 319 271 380 106 50 252 66 377 40z"/>
<path d="M10577 9503 c-2 -5 -3 -141 -3 -303 l1 -295 318 0 c204 0 321 3 326
10 4 5 7 141 7 300 l-1 290 -322 3 c-177 1 -323 -1 -326 -5z"/>
<path d="M12560 9499 c-171 -20 -347 -78 -465 -154 -210 -134 -329 -370 -339
-670 l-2 -60 -182 -3 -182 -2 0 -230 0 -230 183 0 182 0 0 -1000 0 -1000 320
0 320 0 0 1000 0 1000 210 0 210 0 0 230 0 230 -207 0 c-232 0 -212 -7 -208
74 3 69 18 133 38 166 57 91 137 127 297 131 l65 2 0 263 0 264 -82 -1 c-46
-1 -117 -5 -158 -10z"/>
<path d="M119 9468 c-1 -2 -2 -749 -3 -1660 l-1 -1658 347 0 348 0 0 700 0
700 730 0 730 0 0 293 0 292 -728 0 -727 0 -3 378 -2 377 835 0 835 0 0 290 0
290 -1180 0 c-649 0 -1181 -1 -1181 -2z"/>
<path d="M3717 8674 c-1 -1 -29 -5 -62 -8 -260 -28 -466 -112 -655 -268 -283
-233 -432 -601 -425 -1048 9 -529 228 -920 631 -1125 139 -71 289 -115 454
-132 77 -8 294 -8 364 1 347 42 638 204 824 458 88 120 164 291 202 453 30
127 35 187 34 400 -1 220 -17 327 -74 490 -64 185 -176 361 -299 470 -19 16
-39 35 -45 40 -58 57 -248 162 -357 199 -38 13 -141 39 -204 52 -66 13 -376
28 -388 18z m211 -558 c279 -22 455 -220 497 -560 7 -58 8 -309 1 -346 -3 -14
-7 -43 -11 -65 -19 -129 -85 -280 -153 -352 -51 -53 -116 -96 -184 -121 -80
-30 -98 -33 -223 -36 -424 -13 -630 268 -603 824 8 165 30 266 83 378 60 128
182 228 318 262 45 12 175 28 192 24 6 -1 43 -5 83 -8z"/>
<path d="M6407 8675 c-1 -2 -31 -5 -67 -8 -122 -12 -222 -32 -315 -67 -444
-162 -712 -520 -772 -1031 -13 -115 -6 -375 12 -469 3 -14 7 -34 9 -46 79
-416 340 -740 710 -879 256 -96 589 -118 861 -55 376 87 658 321 804 666 36
85 78 226 87 292 3 26 10 70 14 97 5 28 7 136 6 240 -3 205 -20 315 -72 471
-131 391 -428 660 -834 753 -47 10 -110 22 -140 27 -49 6 -296 14 -303 9z
m308 -580 c87 -27 138 -58 201 -120 86 -85 151 -224 170 -363 3 -26 8 -56 10
-67 6 -27 6 -304 0 -335 -3 -14 -7 -43 -11 -64 -48 -325 -240 -504 -548 -511
-255 -6 -412 74 -524 265 -97 165 -126 538 -62 789 56 219 182 360 370 412
106 29 290 26 394 -6z"/>
<path d="M10575 7382 l0 -1227 325 0 325 0 0 1228 0 1227 -325 0 -325 0 0
-1228z"/>
<path d="M12943 7728 c1 -486 6 -892 9 -903 3 -11 13 -48 22 -83 42 -158 145
-317 277 -428 63 -52 228 -137 289 -149 8 -2 35 -8 59 -15 118 -31 336 -32
466 -1 92 22 235 85 283 124 54 44 111 110 130 148 11 22 22 34 24 27 3 -7 4
-112 3 -233 -2 -164 -7 -238 -19 -289 -48 -201 -203 -354 -379 -374 -60 -7
-154 -2 -227 12 -56 11 -154 61 -198 101 -74 66 -132 197 -132 296 0 29 -5 49
-12 51 -7 2 -143 4 -303 4 l-290 -1 0 -80 c2 -355 175 -666 455 -818 58 -32
190 -82 245 -93 137 -28 207 -34 371 -33 194 1 274 12 414 56 72 23 222 91
255 115 6 5 38 28 71 53 199 145 341 389 385 660 10 63 13 359 14 1405 l0
1325 -325 3 -325 2 0 -747 c0 -412 -3 -779 -8 -816 -22 -189 -166 -341 -361
-382 -136 -28 -302 -5 -390 56 -80 55 -142 186 -151 319 -2 36 -4 404 -5 818
l0 752 -325 0 -326 0 4 -882z"/>
</g>
</svg>
